# xmcd
#
# Track frame offsets:
#	150
#	20452
#	35492
#	46921
#	57293
#	72080
#	94209
#	111010
#	125518
#	144350
#	154662
#	166319
#	177563
#	196920
#	210924
#	224624
#	237379
#	253178
#	273907
#	277406
#	296940
#	311042
#	324453
#	327809
#
# Disc length: 4430 seconds
#
# Revision: 0
# Processed by: cddbd v1.5.2PL0 Copyright (c) Steve Scherf et al.
# Submitted via: audiograbber 1.83.01
#
DISCID=73114c18
DTITLE=Hermann Lammers Meyer and Friends - Buried Treasures - A Collection Of His
DTITLE=torical Recordings
DYEAR=2008
DGENRE=Country and Folk
TTITLE0=Charlie Louvin presents Hermann Lammers Meyer - Truck Driving Man
TTITLE1=Hermann Lammers Meyer - You Ought To Hear Me Cry
TTITLE2=Hermann Lammers Meyer - I've Never Seen An Armored Car
TTITLE3=Hermann Lammers Meyer and The Emsland Hillbillies - Der Sänger - Half My 
TTITLE3=Heart's In Texas
TTITLE4=The Emsland Hillbillies - Long Tall Texan (space version)
TTITLE5=Hermann Lammers Meyer and The Emsland Hillbillies - Ich weiß etwas was ke
TTITLE5=iner weiß
TTITLE6=Hermann Lammers Meyer and Lisa Morales - Gone A Million Miles
TTITLE7=Hermann Lammers Meyer and The Emsland Hillbillies - Country Freak
TTITLE8=Hermann Lammers Meyer and Birgit Baumgart and Mescal - Please Don't Play Wi
TTITLE8=th My Emotions (Jack)
TTITLE9=Jimmy Day with Clay Blaker Band/Emsland Hillbillies - Sweet Baby Jill
TTITLE10=Hermann Lammers Meyer and Marion Möhring - Barstool Paradise
TTITLE11=The Emsland Hillbillies - The Trucker
TTITLE12=Marion Möhring with Hermann Lammers Meyer/Emsland Hillbillies - Did Yo
TTITLE12=u Take A Good Look
TTITLE13=Hermann Lammers Meyer - Austin Bound
TTITLE14=Hermann Lammers Meyer with Seldom Sober - Silver Dollar Bar - Ol Tom's
TTITLE14=Am Vets Bar
TTITLE15=Hermann Lammers Meyer - Damn Near Ruined Blues
TTITLE16=Hermann Lammers Meyer and The Emsland Hillbillies - Jungs, ab morgen
TTITLE17=Hermann Lammers Meyer - Liebe Mama - Redneck Mother (Special)
TTITLE18=Johnny Bush - Johnny Bush introduces ....
TTITLE19=Hermann Lammers Meyer - The Waltz Of The Wind
TTITLE20=Hermann Lammers Meyer - They Stole My Steel Guitar
TTITLE21=Hermann Lammers Meyer and The Emsland Hillbillies - No Ways For A Cheate
TTITLE21=r
TTITLE22=Hermann Lammers Meyer - Funk-Werbespot für DKV Autohof Mellendorf/FFN
TTITLE23=Emsland Hillbillies featuring Ulli Möhring - Der kürzeste Country Song
TTITLE23=der Welt
EXTD=
EXTT0=
EXTT1=
EXTT2=
EXTT3=
EXTT4=
EXTT5=
EXTT6=
EXTT7=
EXTT8=
EXTT9=
EXTT10=
EXTT11=
EXTT12=
EXTT13=
EXTT14=
EXTT15=
EXTT16=
EXTT17=
EXTT18=
EXTT19=
EXTT20=
EXTT21=
EXTT22=
EXTT23=
PLAYORDER=
